<svg enable-background="new 0 0 131.2 45.3" viewBox="0 0 131.2 45.3" xmlns="http://www.w3.org/2000/svg"><path d="m125.7 22.5c-.1 0-.2 0-.3 0s-.2 0-.3.1-.2.1-.4.2c-.1.1-.2.2-.4.3-.1.1-.2.2-.3.3h.7c.2 0 .4 0 .6-.1.2 0 .4-.1.5-.1s.2-.1.3-.2c0-.1-.1-.1-.1-.2-.1-.1-.1-.1-.2-.2.1 0 0-.1-.1-.1z" fill="none"/><path d="m118 22.9s0 .1.1.2.2.2.4.2c.1 0 .1 0 .2-.1.1 0 .1-.1.2-.1s.1-.1.2-.1c0 0 .1-.1.1-.1 0-.2-.1-.3-.3-.4-.1-.1-.3-.2-.5-.2-.1 0-.1 0-.1 0-.1 0-.1.1-.1.1s-.1.1-.1.2c-.1.2-.1.3-.1.3z" fill="none"/><path d="m100.7 23.5h.5c0-.2-.1-.4-.3-.5s-.3-.3-.5-.4v.1c0 .1 0 .3-.1.4 0 .1-.1.2-.2.3h.2c.2.1.3.1.4.1z" fill="none"/><path d="m99.3 22.2c-.1-.1-.1-.1-.2-.2-.1 0-.1-.1-.2-.1s-.1 0-.2.1c-.1 0-.1.1-.2.2s-.1.2-.1.3-.1.2-.1.2c0 .1 0 .2.1.3s.2.2.4.2c.1 0 .3-.1.4-.2s.2-.2.3-.3c0-.1-.1-.2-.1-.2.1-.2 0-.3-.1-.3z" fill="none"/><path d="m114.6 23.1v-.1c0-.1 0-.1 0-.2s0-.1-.1-.2c0-.1 0-.1-.1-.2-.3.1-.5.2-.6.4s-.2.4-.3.7c.1 0 .3 0 .4-.1.1 0 .3-.1.4-.1s.2-.1.3-.2z" fill="none"/><path d="m93.8 21.9.6-.6v-.2l-.6-.6h-.2l-.6.6v.2l.6.6z" fill="#385899"/><path d="m101.4 22c-.2-.2-.6-.5-1-.7s-.9-.5-1.5-.8c-.4.5-.8.9-1 1.3s-.3.8-.3 1.1v.3c0 .1 0 .1.1.2-.1 0-.1 0-.2 0s-.2 0-.3 0h-.2-.1c-.1 0-.2 0-.3-.1-.1 0-.2-.1-.2-.2-.1-.1-.1-.2-.2-.4s-.2-.4-.3-.7v-.1l-1.1.3c0 .2.1.5.1.7s.1.5.1.7.1.4.1.6v.4s0 .2-.1.3-.2.2-.3.2c-.1.1-.3.1-.5.2-.2 0-.4.1-.7.1-.2 0-.4 0-.6-.1-.2 0-.3-.1-.4-.2s-.2-.2-.2-.3-.1-.2-.1-.3 0-.2 0-.2c0-.1 0-.2 0-.3s.1-.3.1-.5.1-.4.1-.6l-.8-.2c-.2.5-.3.9-.4 1.2-.1.4-.1.7-.1 1 0 .6.2 1.2.6 1.5.4.4.9.5 1.6.5.4 0 .8 0 1.1-.2s.6-.3.9-.5.4-.4.6-.7c.1-.3.2-.6.2-.9.1 0 .1.1.2.1h.4.3.1c.3 0 .6 0 .9-.1s.5-.1.7-.3c.3.1.6.2.9.3.4.1.8.1 1.2.1.2 0 .3 0 .4-.1s.2-.2.4-.3.2-.3.2-.5.1-.4.1-.6c0-.3-.1-.5-.1-.8 0 0-.2-.2-.4-.4zm-1.8.7c-.1.1-.1.2-.3.3-.1.1-.3.2-.4.2-.2-.1-.3-.1-.4-.2s-.1-.2-.1-.3 0-.1.1-.2c0-.1.1-.2.1-.3s.1-.1.2-.2c.1 0 .1-.1.2-.1s.1 0 .2.1c.1 0 .1.1.2.2s.1.1.2.2c-.1.1 0 .2 0 .3zm.7.5c0-.1.1-.3.1-.4v-.1c.2.1.4.3.5.4s.2.3.3.5c-.1 0-.3 0-.5 0-.1 0-.2 0-.3 0s-.1 0-.2 0c0-.2.1-.3.1-.4z" fill="#385899"/><path d="m102.7 25 1.1-.1v-5.1l-1.2.1z" fill="#385899"/><path d="m104.2 18.1c-.1 0-.2 0-.3 0s-.2 0-.3 0c-.3 0-.5 0-.7 0-.1 0-.2 0-.3 0-.1 0-.1 0-.2 0s-.1 0-.2 0-.3.1-.4.3-.2.5-.4 1l.6.3v-.1c0-.1.1-.2.1-.3.1-.1.1-.2.1-.2.1.1.3.1.4.1h.5.3c.1 0 .2 0 .3-.1.1 0 .2-.1.3-.1s.2-.1.2-.1v-.9h-.1c.3 0 .2.1.1.1z" fill="#385899"/><path d="m109.8 22.9c0-.3-.1-.5-.1-.8s-.1-.5-.1-.7v-.1l-1.1.3c0 .2.1.4.1.7.1.2.1.5.1.8 0 .2.1.5.1.7v.5c0 .1 0 .2-.1.3s-.2.2-.3.2c-.1.1-.3.1-.5.2-.2 0-.4.1-.6.1s-.4 0-.6-.1c-.1 0-.3-.1-.4-.2s-.2-.2-.2-.3-.1-.2-.1-.3 0-.2 0-.2c0-.1 0-.2 0-.3s.1-.3.1-.5.1-.4.1-.6l-.9-.2c-.2.5-.3.9-.4 1.2-.1.4-.1.7-.1 1 0 .6.2 1.2.6 1.5.4.4.9.5 1.6.5.4 0 .8 0 1.1-.2.3-.1.6-.3.9-.5s.4-.4.6-.7c.1-.3.2-.6.2-.9 0-.2 0-.4 0-.7.1-.2 0-.5 0-.7z" fill="#385899"/><path d="m107.4 21.5.6-.6v-.2l-.6-.6h-.2l-.6.6v.2l.6.6z" fill="#385899"/><path d="m118.6 20.6.6-.6v-.2l-.6-.5h-.2l-.6.5v.2l.6.6z" fill="#385899"/><path d="m126.8 21.6c-.1-.2-.3-.3-.6-.4-.2-.1-.4-.1-.7-.1-.2 0-.4.1-.7.2-.2.1-.4.3-.7.5-.2.2-.4.4-.6.7s-.4.6-.6.9c-.1 0-.2-.1-.3-.2 0-.2 0-.3 0-.5s0-.4 0-.5v-.1h-1v.4c0 .3-.1.6-.2.7s-.3.2-.6.2h-.2-.1-.6c.1-.2.2-.4.2-.7s-.1-.5-.1-.7c-.1-.2-.2-.4-.4-.6s-.3-.3-.5-.4-.4-.1-.6-.1-.4.1-.5.2c-.2.1-.3.3-.5.4-.1.2-.2.4-.3.7s-.2.6-.2.8c0 .1 0 .3.1.4h-.4-.1-.1c-.2 0-.4 0-.6.2-.2.1-.4.2-.5.4s-.3.4-.4.7c-.1.2-.2.5-.2.8-.2-.1-.4-.2-.6-.3-.1-.1-.3-.2-.4-.4.3 0 .5-.1.8-.2.2-.1.4-.3.6-.5.1-.2.3-.4.3-.6.1-.2.1-.4.1-.6s0-.4 0-.6-.1-.4-.1-.6c-.1-.2-.1-.4-.2-.5s-.2-.2-.4-.2-.4 0-.6.1-.4.2-.7.4-.4.5-.6.8c-.1.3-.2.7-.3 1.1h-.2-.1-.1c-.3 0-.5-.1-.6-.2s-.1-.3-.1-.6v-3.6l-1.2.1.1 3.9c0 .4.1.6.1.9.1.2.2.5.3.6s.3.3.5.3c.2.1.4.1.7.1h.2.1.3c.1.5.4.9.7 1.2.4.3.8.6 1.4.7l.6-.6c0-.5.1-.8.3-1 .1-.2.4-.3.6-.3h.1.1.1c.3 0 .6 0 .9-.1.3 0 .6-.1.8-.2.2.1.5.2.8.2s.7.1 1.1.1h.3.1.2c.3 0 .6-.1.8-.2s.3-.2.4-.4c.1.1.1.1.2.2s.2.2.4.2c.1.1.3.1.5.1h.7c1.1 0 1.9-.2 2.4-.5.6-.3.9-.9.9-1.5 0-.2 0-.4-.1-.6.1-.2 0-.4-.2-.6zm-.7 1.2c0 .1.1.1.1.2-.1.1-.2.1-.3.2s-.3.1-.5.1-.4 0-.6.1c-.2 0-.4 0-.7 0 .1-.1.2-.2.3-.3s.2-.2.4-.3.2-.2.4-.2c.1-.1.2-.1.3-.1h.3c.1 0 .2.1.2.1 0 .1.1.2.1.2zm-7.9-.5h.1c.2 0 .3.1.5.2s.2.3.3.4c0 0 0 .1-.1.1 0 0-.1.1-.2.1s-.1.1-.2.1-.1.1-.2.1c-.2-.1-.3-.1-.4-.2 0-.1 0-.1 0-.2s0-.1 0-.2.1-.1.1-.2.1-.1.1-.2zm-3.7.8c-.1 0-.1.1-.2.1s-.2.1-.4.1c-.1 0-.3 0-.4.1 0-.3.1-.5.3-.7.1-.2.4-.3.6-.4 0 0 0 .1.1.2 0 .1 0 .1.1.2v.2s0 .1-.1.2c.1 0 .1 0 0 0z" fill="#385899"/><path d="m127.8 19.1.1 5.8v.1l1-.1v-5.9z" fill="#385899"/><path d="m109.4 1.7c-.4-.4-.9-.8-1.5-1-.2-.1-.5-.1-.7-.2-.7.2-1.2.6-1.8 1-.4.3-.6.6-.9.9-.4.4-.8 1.1-1.3 2 .3.2.6.3.9.5.8.5 1.5 1.1 2.3 1.6.2.1.3.4.5.5 0 0 .1-.3.1-.3.3-.9.5-1.8.8-2.6.2-.8.6-1.5 1.1-2.1.1-.1.3-.2.5-.3z" fill="#71858b"/><path d="m109 9.5c.6.2 1 .5 1.3.6 1.3.7 1.8 1.1 2.7 1.3.4.1.8.1 1 0-.2-.5-.4-1-.6-1.4-.3-.9-.6-1.8-.9-2.7-1.2.8-2.3 1.5-3.5 2.2z" fill="#71858b"/><path d="m123.7 6.6c0-.4-.1-.8-.1-1 0-.1-.1-.3-.2-.6s-.2-.4-.2-.5c-.1-.1-.1-.2-.1-.3-2.3-1-4.6-.5-6.8.4 0 .1.1.1.1.2.1.1.1.3.1.3 0 .2.1.3.3 1.6.2 1.2.2 1.3.3 1.9.1.3.1.5.2.7.8-.6 2.1-1.4 3.7-2 1-.5 1.9-.6 2.7-.7z" fill="#71858b"/><path d="m106 11.6c-.2-.2-.5-.3-.7-.4-.9-.6-1.9-1.2-2.8-1.7-.1-.1-.2-.1-.3-.2 0 .5-.1 1.1-.1 1.6-.1.8-.1 1.5-.2 2.3.7-.1 1.2.4 1.8.2.5-.1 1.1-.9 1.5-1.2.1-.1.3-.2.4-.3z" fill="#71858b"/><path d="m124.2 14c.7.1 1.4.3 2.1.5.3-.7.6-1.5.8-2.3.4-2 .1-3.8-1-5.4-.3-.5-.7-.9-.8-1-.8-.9-1.7-1.4-2.3-1.6.1.2.2.5.4.8.1.2.3.8.3 1.6 0 .7-.1 1.4-.3 2.2-.4 1.2-.9 2.4-1.5 3.5-.2.4-.5 1-.7 1.4-.1 0 2.2.2 3 .3z" fill="#385899"/><path d="m126.9 14.3c.6.2 1.4.6 2.2 1.3.9.8 1.5 1.7 1.8 2.4-.3-.4-.8-.5-1.2-.6-1-.2-1.9-.1-2.9-.1-1.9.1-3.9.2-5.8.1-1.7-.1-3.2-.6-4.6-1.7-1.1-.9-1.8-2.1-2-3.5 0-.2-.2-.7-.2-.9.2-.4.7.7.9.8.4.2.9.4 1.4.5.7.2 1.3.3 2 .4.4.1.9.1 1.4.2.8.1 1.6.1 2.4.1 1.5.2 3.1.5 4.6 1z" fill="#71858b"/><path d="m113.5 1.1c-1-.7-2-.9-2.5-1-1.3-.2-2.6-.2-3.9.3.2.1.5.1.7.2.6.2 1.1.6 1.5 1 .4.5.8.9 1.1 1.4.7 1.2 1.2 2.4 1.6 3.7l1.1 3.2c.1.5.3.9.5 1.4-.1 0-.2 0-.3 0-1-.2-1.8-.7-2.6-1.2 0 0-.9-.6-1.2-.9-.8-.6-2.3-2-3.1-2.6-1.1-.9-1.8-1.4-2.3-1.6-.6-.4-.9-.5-1.2-.7-1.7-.8-3.3-.6-3.8-.6-1.1.1-1.9.5-2.5.8-.2.3-.6.8-.7 1.3s-.1.9-.1 1.2c.3 0 .6 0 1 .1.6.1 1.3.2 2.4.7.8.3 1.8.8 2.9 1.4l3.2 1.9c.2.1.6.4.8.5.4.3 1 .7 1.8 1 .8.2 1.4.3 1.9.2.9 0 2.5-.3 3.6-1.1.3-.2.3-.2.5.1.2.5.9 2.4 1.6 3.2.9 1.2 2.4 1.7 3 1.9.4.1.8.2 1 .2-.7-.7-1.1-1.3-1.2-1.8-.3-.8-.4-1.7-.5-3.1v-.1c-.1-1.1-.1-1.5-.3-3 0-.3-.1-.5-.1-.8-.1-.4-.1-1-.3-1.7-.1-.4-.2-1.1-.5-1.7s-1.1-2.5-3.1-3.8z" fill="#385899"/><path d="m93.4 14.3c1.5-.5 3.1-.8 4.8-.9-.1-.1-.1-.1-.1-.2-.5-.9-.9-1.8-1.4-2.7-.5-1.1-.9-2.3-.8-3.5.1-.9.3-1.7.8-2.4 0 0 .1-.1.1-.2-.7.3-1.3.8-1.8 1.2-1.2 1.1-1.9 2.4-2.1 4-.1.7 0 1.4 0 2.1 0 .9.2 1.8.5 2.6z" fill="#71858b"/><path d="m103.9 12.7c-.6.2-1.3.3-2 .4-.4.1-.9.1-1.4.2-1.1.1-1.9.1-2.4.1-.8 0-2.7.1-4.8.9-.6.3-1.4.6-2.2 1.3-1 .8-1.5 1.8-1.8 2.4.3-.4.8-.5 1.2-.6 1-.2 1.9-.1 2.9-.1 1.9.1 3.9.2 5.8.1 1.7-.1 3.2-.6 4.6-1.7 1.1-.9 1.8-2.1 2-3.5 0-.2.2-.7.2-.9-.3.2-.6.5-.9.7-.4.3-.8.6-1.2.7z" fill="#385899"/><path d="m111.1 43.6c.4.4.9.8 1.5 1 .2.1.5.1.7.2.7-.2 1.2-.6 1.8-1 .4-.3.6-.6.9-.9.4-.4.8-1.1 1.3-2-.3-.2-.6-.3-.9-.5-.8-.5-1.5-1.1-2.3-1.7-.2-.1-.3-.4-.5-.5 0 0-.1.3-.1.3-.3.9-.5 1.8-.8 2.7-.2.8-.6 1.5-1.1 2.1-.1 0-.3.2-.5.3z" fill="#71858b"/><path d="m111.5 35.8c-.6-.2-1-.5-1.3-.6-1.3-.7-1.8-1.1-2.7-1.3-.4-.1-.8-.1-1 0 .2.5.4 1 .6 1.4.3.9.6 1.8.9 2.7 1.2-.8 2.3-1.5 3.5-2.2z" fill="#71858b"/><path d="m96.8 38.7c0 .4.1.8.1 1 0 0 .1.3.2.6s.2.4.2.5c.1.1.1.2.1.3 2.3 1 4.6.5 6.8-.3 0 0-.1-.1-.1-.2-.1-.1-.1-.3-.1-.3 0-.2-.1-.3-.3-1.5s-.2-1.3-.3-1.9c-.1-.3-.1-.5-.2-.7-.8.6-2.1 1.5-3.7 2-.9.3-1.9.4-2.7.5z" fill="#71858b"/><path d="m114.5 33.7c.2.2.5.3.7.4.9.6 1.9 1.2 2.8 1.7.1.1.2.1.3.2 0-.5.1-1.1.1-1.6.1-.8.1-1.5.2-2.3-.7.1-1.2-.4-1.8-.2-.5.1-1.1.9-1.5 1.2-.1.1-.3.2-.4.3z" fill="#71858b"/><path d="m96.3 31.3c-.7-.1-1.4-.3-2.1-.5-.3.7-.6 1.5-.8 2.3-.4 2-.1 3.8 1 5.4.3.5.7.9.8 1 .8.9 1.7 1.4 2.3 1.6-.1-.2-.2-.5-.4-.8-.1-.2-.3-.8-.3-1.6 0-.7.1-1.5.3-2.2.4-1.2.9-2.4 1.5-3.5.2-.4.5-1 .7-1.4.1 0-2.2-.2-3-.3z" fill="#385899"/><path d="m93.6 31c-.6-.2-1.4-.6-2.2-1.3-.9-.8-1.5-1.7-1.8-2.4.3.4.8.5 1.2.6 1 .2 1.9.1 2.9.1 1.9-.1 3.9-.2 5.8-.1 1.7.1 3.2.6 4.6 1.7 1.1.9 1.8 2.1 2 3.5 0 .2.2.7.2.9-.2.4-.7-.7-.9-.8-.4-.2-.9-.4-1.4-.5-.7-.2-1.3-.3-2-.4-.4-.1-.9-.1-1.4-.2-.8-.1-1.6-.1-2.4-.1-1.5-.2-3.1-.5-4.6-1z" fill="#71858b"/><path d="m107 44.2c1 .7 2 .9 2.5 1 1.3.2 2.6.2 3.9-.3-.2-.1-.5-.1-.7-.2-.6-.2-1.1-.5-1.5-1s-.8-.9-1.1-1.4c-.7-1.2-1.2-2.4-1.6-3.7l-1.1-3.2c-.1-.5-.3-.9-.5-1.4h.3c1 .2 1.8.7 2.6 1.2 0 0 .9.7 1.2.9.8.6 2.3 2 3.1 2.6 1.1.9 1.8 1.4 2.3 1.7.6.4.9.5 1.2.7 1.7.8 3.3.6 3.8.6 1.1-.1 1.9-.5 2.5-.8.2-.3.6-.8.7-1.3s.1-.9.1-1.2c-.3 0-.6 0-1-.1-.6-.1-1.3-.2-2.4-.7-.8-.3-1.8-.8-2.9-1.4l-3.2-1.9c-.2-.2-.6-.4-.8-.5-.4-.3-1-.7-1.8-1-.8-.2-1.4-.3-1.9-.2-.9 0-2.5.3-3.6 1.1-.3.2-.3.2-.5-.2-.2-.5-.9-2.4-1.6-3.2-.9-1.2-2.4-1.7-3-1.9-.4-.1-.8-.2-1-.2.7.7 1.1 1.3 1.2 1.8.3.8.4 1.7.5 3.1v.1c.1 1.1.1 1.5.3 3 0 .3.1.5.1.8.1.4.1 1 .3 1.7.1.5.2 1 .5 1.7.4.6 1.1 2.5 3.1 3.8z" fill="#385899"/><path d="m127.1 31c-1.5.5-3.1.8-4.8.9.1.1.1.1.1.2.5.9.9 1.8 1.4 2.7.5 1.1.9 2.3.8 3.5-.1.9-.3 1.7-.8 2.4 0 0-.1.1-.1.2.7-.3 1.3-.8 1.8-1.2 1.2-1.1 1.9-2.4 2.1-4 .1-.7 0-1.4 0-2.1 0-.9-.2-1.8-.5-2.6z" fill="#71858b"/><path d="m116.6 32.6c.6-.2 1.3-.3 2-.4.4-.1.9-.2 1.4-.2 1.1-.1 1.9-.1 2.4-.1.8 0 2.7-.1 4.8-.9.6-.3 1.4-.6 2.2-1.3 1-.8 1.5-1.8 1.8-2.4-.3.4-.8.5-1.2.6-1 .2-1.9.1-2.9.1-1.9-.1-3.9-.2-5.8-.1-1.7.1-3.2.6-4.6 1.7-1.1.9-1.8 2.1-2 3.5 0 .2-.2.7-.2.9.3-.2.6-.5.9-.7.4-.4.8-.6 1.2-.7z" fill="#385899"/><path d="m75.7 17.1c-.2-.1-.4-.1-.6-.1s-.5.1-.8.2-.5.3-.8.5-.5.5-.8.7c-.2.2-.4.4-.6.7h1.5c.5 0 1-.1 1.4-.1.4-.1.8-.2 1.1-.3s.5-.3.7-.5c0-.1-.1-.3-.2-.4-.1-.2-.2-.3-.4-.4-.1-.1-.3-.2-.5-.3z" fill="none"/><path d="m58.7 18c0 .1.1.2.3.5.2.2.5.4.8.5.1 0 .3-.1.4-.2.2-.1.3-.2.5-.3.1-.1.3-.2.4-.3s.1-.2.2-.2c-.1-.4-.3-.7-.6-.9-.3-.3-.6-.4-1-.4-.1 0-.2 0-.3.1s-.2.2-.3.3-.2.3-.2.5c-.1 0-.2.2-.2.4z" fill="none"/><path d="m20.7 19.3h1.1c-.1-.4-.3-.8-.6-1.1s-.7-.6-1.2-1v.1.3c0 .3 0 .6-.1.9-.1.2-.2.5-.3.7.1 0 .3 0 .4.1z" fill="none"/><path d="m17.7 16.3c-.1-.2-.3-.3-.4-.4s-.3-.1-.4-.1-.2.1-.4.2c-.1.1-.3.3-.4.4-.1.2-.2.4-.3.6s-.1.4-.1.5c0 .2.1.4.2.6.2.2.4.4.8.5.3-.1.6-.3.9-.5s.5-.5.6-.7c0-.2-.1-.4-.2-.5 0-.2-.1-.4-.3-.6z" fill="none"/><path d="m51.3 18.3c0-.1 0-.2 0-.3 0-.2-.1-.3-.1-.5s-.1-.3-.2-.5c0-.1-.1-.2-.1-.3-.6.2-1.1.5-1.4.9s-.5.9-.6 1.6c.3 0 .6-.1.9-.1.3-.1.6-.2.8-.3s.4-.2.5-.3c.1-.2.2-.2.2-.2z" fill="none"/><path d="m5.4 15.7 1.3-1.3v-.4l-1.3-1.3h-.4l-1.3 1.3v.4l1.3 1.3z" fill="#385899"/><path d="m22.2 15.9c-.5-.5-1.2-1-2.1-1.6-.9-.5-2-1.1-3.3-1.8h-.1l-.1.1c-1 1-1.7 2-2.2 2.8-.5.9-.7 1.7-.7 2.4 0 .3 0 .5.1.7 0 .2.1.3.2.5-.1 0-.3 0-.4 0-.2 0-.4 0-.7 0h-.3-.1-.2c-.3 0-.5 0-.7-.1s-.4-.2-.5-.5c-.2-.2-.3-.6-.4-1s-.3-1-.4-1.6v-.1l-2.5.6v.1c.1.5.2 1 .3 1.6.1.5.2 1.1.3 1.6s.1.9.2 1.3.1.7.1.9-.1.4-.2.6c-.2.2-.4.4-.7.5-.3.2-.7.3-1.1.4s-.9.2-1.4.2-.9-.1-1.2-.2c-.6 0-.9-.1-1.1-.3s-.3-.4-.4-.6-.1-.5-.1-.7 0-.3 0-.6c0-.2 0-.5.1-.7s.1-.6.2-1c0-.4.1-.8.2-1.3v-.1l-1.9-.6v.1c-.4 1-.7 1.9-.9 2.7-.1.8-.2 1.5-.2 2.1 0 1.4.4 2.5 1.2 3.3s2 1.2 3.6 1.2c.9 0 1.7-.1 2.4-.3s1.4-.6 1.9-1c.6-.4 1-.9 1.3-1.6.3-.6.5-1.2.5-2 .1.1.3.2.5.2.3.1.6.1.9.1h.2.1.2c.7 0 1.4-.1 2.1-.2.6-.1 1.2-.3 1.6-.6.6.2 1.3.4 2.1.6.8.1 1.7.2 2.7.2.3 0 .7-.1 1-.2.3-.2.6-.4.8-.7s.4-.6.5-1 .2-.8.2-1.3c0-.6-.1-1.2-.3-1.7-.4-.4-.7-.9-1.3-1.4zm-3.9 1.5c-.1.2-.3.4-.6.7-.3.2-.6.4-.9.5-.4-.2-.6-.3-.8-.5s-.2-.4-.2-.6c0-.1 0-.3.1-.5s.2-.4.3-.6.3-.3.4-.4.2-.2.4-.2c.1 0 .2 0 .4.1.1.1.3.2.4.4s.2.3.3.5.1.4.2.6zm1.6 1.1c.1-.3.1-.5.1-.8 0-.1 0-.2 0-.3v-.1c.5.3.8.6 1.2 1 .3.3.5.7.6 1.1-.3 0-.7 0-1.1 0-.2 0-.5 0-.7-.1-.2 0-.3 0-.4-.1.1-.2.2-.5.3-.7z" fill="#385899"/><path d="m25.2 22.5 2.2-.2v-11.1l-2.5.2z" fill="#385899"/><path d="m28.4 7.3c-.2 0-.4.1-.6.1s-.5 0-.7.1c-.6 0-1.1 0-1.5 0-.2 0-.5-.1-.6-.1h-.1c-.2 0-.3-.1-.4-.1-.2 0-.3-.1-.4-.1-.3 0-.6.2-.9.6s-.5 1.1-.8 2.1v.1l1.4.7.1-.1c.1-.2.2-.4.3-.7.1-.2.2-.4.3-.5.3.1.6.2.9.3.3 0 .7.1 1.2.1h.7c.2 0 .5-.1.7-.1.2-.1.5-.1.7-.2s.2-.4.3-.5h.1v-1.8h-.2c-.1 0-.3.1-.5.1z" fill="#385899"/><path d="m40.7 17.9c-.1-.6-.2-1.1-.3-1.7-.1-.5-.2-1-.3-1.4v-.1l-2.5.6v.1c.1.4.2.9.3 1.5s.2 1.1.3 1.7c.1.5.2 1 .2 1.5.1.5.1.8.1 1s-.1.4-.2.6c-.2.2-.4.4-.7.5-.3.2-.7.3-1.1.4s-.9.2-1.4.2-.9-.1-1.2-.2-.6-.2-.8-.4-.3-.4-.4-.6-.1-.5-.1-.7 0-.3 0-.6c0-.2 0-.5.1-.7 0-.3.1-.6.2-1s.2-.8.3-1.3v-.1l-1.9-.6v.1c-.4 1-.7 1.9-.9 2.7s-.3 1.5-.3 2.1c0 1.4.4 2.5 1.2 3.3s2 1.2 3.6 1.2c.9 0 1.7-.1 2.4-.3s1.4-.6 1.9-1c.6-.4 1-1 1.3-1.6s.5-1.3.5-2.1c0-.4 0-.9-.1-1.5 0-.5-.1-1.1-.2-1.6z" fill="#385899"/><path d="m35.5 14.9 1.3-1.3v-.4l-1.3-1.3h-.4l-1.3 1.3v.4l1.3 1.3z" fill="#385899"/><path d="m60.1 12.9 1.3-1.3v-.4l-1.3-1.3h-.4l-1.3 1.3v.4l1.3 1.3z" fill="#385899"/><path d="m78.2 15.1c-.3-.4-.7-.7-1.2-.9s-1-.3-1.6-.3c-.5 0-1 .1-1.4.4-.5.2-1 .6-1.5 1s-1 1-1.4 1.6-.9 1.3-1.3 2c-.3-.1-.5-.2-.7-.5 0-.4 0-.7 0-1.1s0-.8 0-1.1v-.1h-2.3v.9c0 .7-.1 1.3-.4 1.6s-.7.5-1.4.5h-.5-.1-1.4c.2-.5.3-1 .3-1.5s-.1-1.1-.3-1.5c-.2-.5-.5-.9-.8-1.2s-.7-.6-1.1-.8-.9-.3-1.3-.3-.8.1-1.2.4c-.4.2-.7.6-1 1s-.6.9-.7 1.4c-.2.6-.3 1.2-.3 1.8 0 .3 0 .6.1.9h-.9-.1-.2c-.5 0-.9.1-1.3.3s-.8.5-1.2.9c-.3.4-.6.9-.9 1.4-.2.5-.4 1.1-.5 1.7-.5-.2-.9-.4-1.3-.7-.3-.2-.6-.5-.8-.8.6-.1 1.2-.3 1.6-.5.5-.3.9-.6 1.3-1 .3-.4.6-.8.7-1.2.2-.4.2-.8.2-1.2s0-.8-.1-1.3-.2-1-.3-1.4-.3-.8-.5-1.1-.5-.5-.8-.5c-.4 0-.9.1-1.4.3s-1 .5-1.5 1c-.5.4-.9 1-1.2 1.7s-.6 1.4-.7 2.4h-.5-.1-.2c-.6 0-1-.1-1.2-.4-.2-.2-.3-.7-.3-1.3v-8h-2.5l.2 8.5c0 .8.1 1.4.2 1.9s.3 1 .6 1.3.7.6 1.1.7 1 .2 1.6.2h.4.1.8c.3 1 .9 1.9 1.6 2.6.8.7 1.8 1.3 3.1 1.6h.1l1.4-1.3v-.1c.1-1 .3-1.8.6-2.2s.8-.6 1.4-.6h.3.1.1c.6 0 1.3 0 1.9-.1s1.2-.3 1.8-.5c.6.2 1.2.4 1.8.5.7.1 1.5.1 2.4.1h.6.1.5c.7 0 1.3-.1 1.8-.4.4-.2.7-.6 1-1 .1.2.3.3.4.5.2.2.5.3.8.5.3.1.7.2 1.2.3s1 .1 1.6.1c2.3 0 4.1-.4 5.4-1.1s1.9-1.9 1.9-3.4c0-.5-.1-1-.3-1.4.2-.4-.1-.8-.4-1.2zm-1.6 2.7c.1.1.2.3.2.4-.2.2-.4.3-.7.5-.3.1-.7.2-1.1.3s-.9.1-1.4.1-1 0-1.5 0c.2-.2.4-.5.6-.7.3-.3.5-.5.8-.7s.5-.4.8-.5.5-.2.8-.2c.2 0 .4 0 .6.1s.4.2.5.3c.2.1.3.3.4.4zm-17.3-1.1c.1-.1.2-.1.3-.1.4 0 .7.1 1 .4s.5.6.6.9c0 .1-.1.1-.2.2s-.2.2-.4.3c-.1.1-.3.2-.5.3-.1.1-.3.1-.4.2-.4-.1-.6-.3-.8-.5s-.3-.4-.3-.5c0-.2 0-.3.1-.5s.1-.3.2-.5c.2 0 .3-.1.4-.2zm-8.2 1.7c-.1.1-.3.2-.5.3s-.5.2-.8.3-.6.1-.9.1c.1-.6.3-1.2.6-1.6s.8-.7 1.4-.9c0 .1.1.2.1.3.1.2.1.3.1.5s.1.3.1.5v.3c.1.1 0 .1-.1.2z" fill="#385899"/><path d="m80.3 9.6.3 12.7v.2l2.3-.2v-12.9z" fill="#385899"/><g fill="#71858b"><path d="m2.2 38.1c-.6 0-1.1-.1-1.3-.4-.3-.3-.4-.8-.4-1.5l-.2-4.5h.8l.2 4.6c0 .5.1.8.2.9s.4.2.8.2h.1z"/><path d="m6.7 36.3c0 .3.1.6.3.7.2.2.4.3.7.3v.8c-.6 0-1-.2-1.3-.6v.1c-.1.3-.3.4-.6.5s-.5.1-.8-.1l-1.3-.7c-.4.5-.8.7-1.4.7h-.1v-.8h.1c.5 0 .8-.2 1-.6l.7-1.3c.2-.4.5-.6.8-.7.4-.1.7-.1 1.1.1.3.1.5.4.6.6.2.3.2.6.2 1zm-.9.9c.2-.4.3-.7.2-1.1 0-.3-.2-.6-.4-.7s-.4-.1-.6 0-.4.2-.5.5l-.4.8 1.3.7c.2.1.3 0 .4-.2z"/><path d="m7.6 38.1v-.8h3.1v.8z"/><path d="m10.6 38.1v-.8h3.1v.8z"/><path d="m20.4 35.8c.2.7.1 1.3-.2 1.7s-.8.6-1.3.6-.9-.2-1.2-.5c-.3.4-.7.5-1.2.5s-.9-.2-1.2-.6c-.3.4-.7.6-1.2.6h-.5v-.8h.4c.6 0 .9-.3.9-.8v-1.2h.7v1.2.1c0 .2.1.4.2.5s.4.2.6.2c.6 0 .9-.2.9-.7v-.1-1.2h.7v1.2.1c0 .2.1.4.2.5s.3.2.6.2.6-.1.8-.3.2-.5.1-1l-.4-1.5.7-.2zm-3-2.2-.6.6-.6-.6.6-.6zm.8-1.2-.5.6-.5-.5.5-.5zm.3 1.8-.6-.6.6-.6.6.6z"/><path d="m25.9 38.1c-.5 0-.9-.1-1.2-.3s-.4-.4-.5-.8v-.7h.7v.5c.1.3.3.4.8.4h.7c.4 0 .7-.1.9-.2.1-.2.2-.4.1-.6-.1-.3-.3-.7-.5-1.2-.3-.5-.5-.8-.7-1.1l-.3-.5.6-.5c.1.1.2.3.4.5s.4.6.7 1.2c.3.5.5 1 .6 1.4.1.5 0 1-.3 1.4s-.8.5-1.6.5z"/><path d="m31.3 38.1c-.6 0-1.1-.1-1.3-.4-.3-.3-.4-.8-.4-1.5l-.2-4.5h.8l.2 4.6c0 .5.1.8.2.9s.4.2.8.2h.1z"/><path d="m35.9 36.3c0 .3.1.6.3.7.2.2.4.3.7.3v.8c-.6 0-1-.2-1.3-.6v.1c-.1.3-.3.4-.6.5s-.5.1-.8-.1l-1.3-.7c-.4.5-.8.7-1.4.7h-.1v-.8h.1c.5 0 .8-.2 1-.6l.7-1.4c.2-.4.5-.6.8-.7.4-.1.7-.1 1.1.1.3.1.5.4.6.6.1.4.2.7.2 1.1zm-.9.9c.2-.4.3-.7.2-1.1 0-.3-.2-.6-.4-.7s-.4-.1-.6 0-.4.2-.5.5l-.4.8 1.3.7c.1.1.2 0 .4-.2z"/><path d="m36.8 38.1v-.8h3.1v.8z"/><path d="m39.7 38.1v-.8h3.1v.8z"/><path d="m45.8 36.5c0 .3.1.5.2.6s.3.2.6.2v.8c-.5 0-1-.2-1.2-.5-.3.3-.7.5-1.3.5h-1.5v-.8h1.5c.3 0 .6-.1.7-.2s.2-.3.2-.6v-1.2l.8-.1zm-1.4-2.8-.6.6-.6-.6.6-.6zm1.7 0-.6.6-.6-.6.6-.6z"/><path d="m51.4 37.7-1.7.3h-.2c-.2 0-.6 0-1 .1-.5 0-.9 0-1.2 0h-.5-.1v-.8h.1 1.2c-.1-.2-.2-.5-.3-.7-.1-.5 0-1 .3-1.4s.7-.7 1.1-.7h.6c.3 0 .5.1.7.1l.3.1-.2.8c-.1 0-.2 0-.3-.1-.1 0-.3-.1-.5-.1s-.4 0-.5 0c-.3 0-.5.2-.7.4s-.2.5-.2.7c0 .3.2.5.4.6.2.2.4.2.7.2l1.7-.3z"/><path d="m52.5 38.1-.3-6.5h.8l.2 6.5z"/><path d="m63.4 37.3h.1v.8h-.1c-.4 0-.8-.1-1.1-.4-.3.3-.7.4-1.1.4h-4v-.8h.9l.3-.4-.2-5.2h.8l.2 4.3c.4-.5.7-.9 1-1.1s.6-.3 1-.3c.5 0 .9.2 1.3.5.3.4.5.8.5 1.4 0 .3-.1.5-.2.8.2-.1.4 0 .6 0zm-2.2 0c.3 0 .5-.1.7-.3s.3-.4.3-.6c0-.3-.1-.6-.3-.8s-.4-.3-.7-.3-.5.1-.8.3-.5.6-.9 1.2l-.4.5zm.8-4.6-.7.7-.7-.7.7-.7z"/><path d="m63.5 38.1v-.8h3.1v.8z"/><path d="m66.4 38.1v-.8h3.1v.8z"/><path d="m73.5 36.3c.1.7 0 1.1-.3 1.4s-.9.4-1.8.4h-2v-.8h2c.6 0 1-.1 1.2-.2s.2-.3.2-.7c-.4.1-.8.1-1.2.1-.5 0-.8-.1-1.1-.4s-.4-.6-.4-1.1.1-1 .4-1.4.7-.6 1.2-.6.9.1 1.3.5c.3.4.5.8.6 1.5zm-2.9-1.3c0 .2.1.4.3.6.2.1.4.2.6.2.4 0 .8 0 1.2-.1l-.1-.6c0-.4-.2-.7-.4-.9s-.4-.3-.7-.3-.5.1-.7.4c-.1.1-.2.4-.2.7zm1.7-3.4-.7.7-.7-.7.7-.7z"/><path d="m76.7 38.1c-.6 0-1.1-.1-1.3-.4-.3-.3-.4-.8-.4-1.5l-.2-4.5h.8l.2 4.6c0 .5.1.8.2.9s.4.2.8.2h.1z"/><path d="m80.1 34.5 2.5 1.5-.1 1-2.9.8c-.7.2-1.6.3-2.9.3v-.8c1.2 0 2.1-.1 2.7-.3l2.3-.6-2-1.1c-.3-.2-.6-.2-.9-.1s-.6.3-.7.6l-.2.2-.7-.4.2-.3c.3-.5.7-.8 1.2-1 .5-.1 1-.1 1.5.2z"/></g></svg>